<svg width="84" height="17" viewBox="0 0 84 17" fill="none" xmlns="http://www.w3.org/2000/svg">
<path d="M7.54078 2.43921C7.79024 1.67145 8.87642 1.67145 9.12588 2.43921L10.0172 5.18237C10.1287 5.52572 10.4487 5.75819 10.8097 5.75819H13.6941C14.5013 5.75819 14.837 6.7912 14.1839 7.26571L11.8504 8.96107C11.5583 9.17328 11.4361 9.54942 11.5477 9.89277L12.439 12.6359C12.6885 13.4037 11.8097 14.0421 11.1566 13.5676L8.82315 11.8723C8.53108 11.6601 8.13558 11.6601 7.84351 11.8723L5.51004 13.5676C4.85694 14.0421 3.97821 13.4037 4.22767 12.6359L5.11898 9.89277C5.23054 9.54942 5.10832 9.17328 4.81625 8.96107L2.48278 7.26571C1.82968 6.7912 2.16533 5.75819 2.9726 5.75819H5.85693C6.21795 5.75819 6.53791 5.52573 6.64948 5.18237L7.54078 2.43921Z" fill="#FCB547"/>
<path d="M24.2078 2.43921C24.4572 1.67145 25.5434 1.67145 25.7929 2.43921L26.6842 5.18237C26.7957 5.52572 27.1157 5.75819 27.4767 5.75819H30.3611C31.1683 5.75819 31.504 6.7912 30.8509 7.26571L28.5174 8.96107C28.2253 9.17328 28.1031 9.54942 28.2147 9.89277L29.106 12.6359C29.3554 13.4037 28.4767 14.0421 27.8236 13.5676L25.4901 11.8723C25.1981 11.6601 24.8026 11.6601 24.5105 11.8723L22.177 13.5676C21.5239 14.0421 20.6452 13.4037 20.8947 12.6359L21.786 9.89277C21.8975 9.54942 21.7753 9.17328 21.4832 8.96107L19.1498 7.26571C18.4967 6.7912 18.8323 5.75819 19.6396 5.75819H22.5239C22.8849 5.75819 23.2049 5.52573 23.3165 5.18237L24.2078 2.43921Z" fill="#FCB547"/>
<path d="M40.8738 2.43921C41.1233 1.67145 42.2094 1.67145 42.4589 2.43921L43.3502 5.18237C43.4618 5.52572 43.7817 5.75819 44.1427 5.75819H47.0271C47.8343 5.75819 48.17 6.7912 47.5169 7.26571L45.1834 8.96107C44.8913 9.17328 44.7691 9.54942 44.8807 9.89277L45.772 12.6359C46.0215 13.4037 45.1427 14.0421 44.4896 13.5676L42.1562 11.8723C41.8641 11.6601 41.4686 11.6601 41.1765 11.8723L38.843 13.5676C38.1899 14.0421 37.3112 13.4037 37.5607 12.6359L38.452 9.89277C38.5635 9.54942 38.4413 9.17328 38.1493 8.96107L35.8158 7.26571C35.1627 6.7912 35.4983 5.75819 36.3056 5.75819H39.1899C39.551 5.75819 39.8709 5.52573 39.9825 5.18237L40.8738 2.43921Z" fill="#FCB547"/>
<path d="M57.5408 2.43921C57.7902 1.67145 58.8764 1.67145 59.1259 2.43921L60.0172 5.18237C60.1287 5.52572 60.4487 5.75819 60.8097 5.75819H63.6941C64.5013 5.75819 64.837 6.7912 64.1839 7.26571L61.8504 8.96107C61.5583 9.17328 61.4361 9.54942 61.5477 9.89277L62.439 12.6359C62.6885 13.4037 61.8097 14.0421 61.1566 13.5676L58.8232 11.8723C58.5311 11.6601 58.1356 11.6601 57.8435 11.8723L55.51 13.5676C54.8569 14.0421 53.9782 13.4037 54.2277 12.6359L55.119 9.89277C55.2305 9.54942 55.1083 9.17328 54.8163 8.96107L52.4828 7.26571C51.8297 6.7912 52.1653 5.75819 52.9726 5.75819H55.8569C56.218 5.75819 56.5379 5.52573 56.6495 5.18237L57.5408 2.43921Z" fill="#FCB547"/>
<path d="M74.2068 2.43921C74.4563 1.67145 75.5424 1.67145 75.7919 2.43921L76.6832 5.18237C76.7948 5.52572 77.1147 5.75819 77.4757 5.75819H80.3601C81.1674 5.75819 81.503 6.7912 80.8499 7.26571L78.5164 8.96107C78.2244 9.17328 78.1021 9.54942 78.2137 9.89277L79.105 12.6359C79.3545 13.4037 78.4757 14.0421 77.8226 13.5676L75.4892 11.8723C75.1971 11.6601 74.8016 11.6601 74.5095 11.8723L72.1761 13.5676C71.523 14.0421 70.6442 13.4037 70.8937 12.6359L71.785 9.89277C71.8966 9.54942 71.7743 9.17328 71.4823 8.96107L69.1488 7.26571C68.4957 6.7912 68.8313 5.75819 69.6386 5.75819H72.5229C72.884 5.75819 73.2039 5.52573 73.3155 5.18237L74.2068 2.43921Z" fill="#FCB547"/>
</svg>
